# xmcd
#
# Track frame offsets: 
#        150
#        17865
#        39168
#        58155
#        72215
#        100735
#        125450
#        147465
#        165663
#        185050
#        196135
#        215250
#        223938
#        234423
#
# Disc length: 3315 seconds
#
# Revision: 4
# Processed by: cddbd v1.5.2PL0 Copyright (c) Steve Scherf et al.
# Submitted via: ExactAudioCopy v0.95b4
#
DISCID=ce0cf10e
DTITLE=Charlie Daniels - The Door
DYEAR=1994
DGENRE=Country
TTITLE0=The Business of Love
TTITLE1=Washed in the Blood
TTITLE2=Jesus Died for You
TTITLE3=Sunday Morning
TTITLE4=Protected by Prayer
TTITLE5=Lay it on the Line
TTITLE6=Praying to the Wrong God
TTITLE7=Two Out of Three
TTITLE8=End of the World
TTITLE9=Jerusalem Trilogy: My Chosen One
TTITLE10=The Birth
TTITLE11=Crucify Him
TTITLE12=Jerusalem's Shame
TTITLE13=Joy in the Morning
EXTD=
EXTT0=
EXTT1=
EXTT2=
EXTT3=
EXTT4=
EXTT5=
EXTT6=
EXTT7=
EXTT8=
EXTT9=tracks 10-14 are all listed as track 10 on the jacket\\nso, the 
EXTT9=Jerusalem Trilogy refers to 10-14
EXTT10=
EXTT11=
EXTT12=
EXTT13=
PLAYORDER=
